<?xml version="1.0" encoding="UTF-8"?>
<svg id="a" data-name="Layer 1" xmlns="http://www.w3.org/2000/svg" viewBox="0 0 2031.32 360">
  <defs>
    <style>
      .b {
        fill: #6ae79a;
      }

      .c {
        fill: none;
      }
    </style>
  </defs>
  <path class="b" d="M772.8,40.17c1.56-1.52,9.5,2.01,11.49,2.01,1.57,0,5.04-1.71,7-2,14.72-2.21,29.33-.22,43.93.04,37.45.66,71.67-3,107.8,9.12,40.36,13.45,76.51,44.92,91.79,84.93,1.3,2.44,6.24,8.58,6.72,10.25.87,2.98.63,6.59,1.92,11.05,4.9,17.02-.38,40.93-3.8,58.62-13.89,71.88-77.86,111.12-147.42,115.19-28.81,1.69-58.25-1.02-86.91.05-6.28.23-17.72.9-22.9-2.17-1.49-.88-2.63-2.9-3.6-3.39-5.77-2.93-7.99,5.23-11.52,5.27-1.46.02-7.48-2.49-10.01-2.74-26.72-3.04-54.02.1-80.88-1.08-3.55-1.01.18-8.54-.46-11.28,1.12-2.09,4.76-3.79,4.94-6.09.26-3.31-4.39-8.41-5.06-11.97-.97-4.56,1.3-35.12,0-36.41-.49-.48-4.63,1-6.52-.97-1.74-1.81-1.6-7.58-3.26-10.71-2.2-4.14-7.76-7.57-7.22-12.75.21-2.04,2.48-5.1,1.97-6.91-.23-.83-6.62-4.3-7.44-4.31-1.31,0-7.15,3.15-8.51,1.74-.47-.49.46-7.53-.07-9.4-1.08-3.79-11.55-.27-14.41-.55-3.83-.38-10.19-4.73-15.18-5.82-4.36-.95-6.75-.83-10.82-.18-8.42-.93-14.84,8.58-17.29,15.66-5.72,16.63-6.72,46.38-4.19,63.62,1.37,9.3,5.35,19.56,6.04,28.88,1.15,15.56-8.22,10.85-19.53,11.52-80.02,5.21-160.93-.62-240.93,2.03-14.3-1.24-4.52-6.44-.43-11.49,35.52-53.29,29.34-190.76,6.5-248.86-4.8-10.6-14.16-18.27-14.52-30.89l133.48.04c14.43-1.99,28.5-2.53,42.89-1.99,7.73.29,17.79-1.05,25.04-.05,1.8.25,6.89,2.9,7.38,4.61.69,2.41-.33,5.96.27,8.71.55,2.54,3.92,4.36,3.9,6.13-.04,2.8-3.7,9.63-4.09,13.93-.36,3.92-.34,11.08.05,14.99s2.86,9.16,3.05,12.94c.17,3.41-1.06,7.69-4.58,4.54-5.27-17.06-25.22-37.23-38.48-48.37-8.48-6-28.32-6.46-38.5-5.55-2.64.24-9.54,1.87-10.34,4.64-.98,3.42,2,13.04.89,14.35-.95,1.12-2.67-1.22-3.2-2.29-2.14-4.29-1.94-9.85-8.77-5.17-6.32,4.32-11.92,23.41-13.79,31.12-.6,2.48-2.24,8.71-2.24,10.74,0,.99.9,1.94,1.01,3,.39,12.07,3.72,17.08,14.97,21.95,3.79,1.6,14.82,5.21,18.55,5.5,2.8.22,6.08-2.81,8.9-1.98,1.22.36,1.54,2.47,2.56,3.43,2.5,2.36,10.23,5.5,13.67,6.3,7.9,1.83,18.65,1.09,26.8.17,3.06-.35,8.99-2.99,11.01-3.04,8.22,2.43-.57,18.25-.55,24.44-.92,11.03,3.52,22.43,4.1,32.92.2,3.57-2.14,5.1-2.05,8.51-1.72.41-1.99-.66-3-1.5-9.12-7.58-17.84-20.09-27.01-26.91-10.38-7.13-55.85-35.75-64.83-20.85-.46,15.59.21,31.21-.07,46.8-.2,11.45-1.66,23.2-1.09,34.9.67,13.52,5.22,27.26,4.09,40.89-.38,4.61-2.62,10.29-3.04,14.92-.38,4.26-.85,16.77,2.98,18.95,4.36,2.49,7.32-.02,11.51-.5,23.94-2.72,47.26.38,70.48-9.46,7.25-3.07,13.67-8.01,20.94-11.02,3.38-1.4,15.15-4.33,16.57-6.41.92-1.34.24-7.44,1.93-11.04,1.93-4.11,6.48-7.29,8.34-10.62,4.45-7.96,9.13-23.02,12.72-32.19,11.74-29.98,22.06-60.81,33.91-90.82,6.26-15.84,20.37-40.68,18.5-57.31-.78-6.94-6.79-15.84-9.51-22.42-.9-2.18-1.12-5.45-1.95-7.03s-5.37-3.54-7.04-4.94c-3.09-2.57-10.16-9.41-12.5-12.46-.67-.87-2.2-3.09-1.97-4.01.52-2.14,2.06-.72,2.66-.67,21.26-.29,42.63,1.92,63.82,3.16,3.46.14,16.94-.66,18.54.45,24.6,74.94,49.27,150.45,76.7,224.63,7.22,19.98,10.32,41.15,27.19,55.64.83.71,1.1,1.55,2.5,1.55,9.36-3.62,15.78-27.52,17.48-36.46.72-6.34-.49-21.45,2.5-26.42,1.47-2.44,5.59-4.21,6.35-7.63,1.46-6.63-2.25-7.47-4.37-12.29-3.02-6.87-4.31-28.7-3.47-36.42.09-.78,1.21-5.19,1.44-5.55,1.11-1.68,7.07-3.49,8.6-5.38.61-.76,2.03-4.28,1.9-4.92-.53-2.48-5.47-2.52-5.92-4.15s3.61-10.8,3.97-13.92c2.03-17.91-8.47-33.15-9.98-49.86-.84-9.32,2.45-17.41-.17-26.75-.84-2.98-4.53-5.55-5.67-9.3-2.88-9.49.8-22.74-7.64-30.28-1.03-.92-7.82-4.72-5.52-6.96ZM956.68,98.04c-.22-.23-2.23.12-3.29-.2-5.42-1.67-7.45-7.66-10.65-11.32-19.96-23.52-49.02-40.32-80.49-36.38-2.99.34-4.2,2.17-5.05,4.94-2.87,9.35-.81,16.41.57,25.47,1.13,7.45-.59,12.8-1,19.96-.34,5.91-.12,14.8,3.13,19.8,1.59,2.45,5.07,4.34,5.71,7.27,2.11,9.66-6.79,14.59-7.84,22.78-1.66,12.92.56,30.28.04,43.92-.55,14.32-2.49,28.2-2.09,42.88.4,14.66.2,31.14,2.24,45.63.81,5.76,5.11,11.88,5.79,17.15.62,8.22-2.6,19.94,10.5,18.45,41.31,2.54,80.7-39.72,93.23-76.51,11.14-38.27,13.32-78.5-2.8-115.46-.21-6.08,10.93-3.98,9.05-13.99-.5-3.5-6.34-5.57-9.52-5.54-1.51.01-2.3.82-3.17.96-4.14.71-3.38-8.81-4.35-9.82ZM832.78,55.13c-1.07-1.02-11.82-.11-12.88,3.6-.26.9-.34,6.14-.11,6.37.66.67,8.62-.75,10.02-1.47,2.05-1.06,4.12-7.41,2.98-8.5ZM950.71,68.09c.29.28,2.18.04,3.01-.49,1.65-1.05,1.6-5.18-.51-6.49-2.82,1.13-2.42,1.74-3.21,4.5.65.65.62,2.39.71,2.48ZM961.71,72.08c.6-6.34-3.6-6.34-3,0h3ZM361.01,75.07c-.84-.84-3.8,1.7-4,2.99l1.58.62c1.31.51,3.14-.79,3.02-2.19l-.6-1.42ZM390,93.02c-.15.18-1.13,3.71-.93,4.38,1.09,3.76,7.43,3.53,5.84-1.79-.45-1.51-4.04-3.6-4.9-2.59ZM648.86,202.72c1.52-15.99-14.54-66.17-22.52-78.75-3.3-4.01-2.84-2.47-7.37-.94-4.14,14.43-8.63,28.82-13.28,43.1-2.29,7.04-8.38,15.11.82,20.5,5.2,3.05,12.28,4.94,17.7,7.27,1.69.73,3.48,2.47,5.64,3.35,2.62,1.06,17.91,6.6,19.01,5.46ZM368.01,129.92h-7c-.07,2.75-.68,7.96,2.58,8.92,4.77,1.41,5.29-8.06,4.42-8.92ZM700.8,300.48c-.54-.49-3.81-1.3-4.99-.56-.47.3-1.76,1.66-1.9,2.14-.21.72.76,4.11.97,4.34.29.31,4.65.37,5.5-.93.61-.94.72-4.72.43-4.98ZM1710.33,330.36c-.18-.17-.05-3.43.16-4.33.75-3.32,4.77-6.94,6.36-10.6,15.77-38.2,9.27-84.62,10.47-124.68h10c.41-1.71-.66-1.98-1.5-2.99-3.07-3.7-7.62-4.95-8.5-10.46.33-13.3-.4-26.65-.04-39.94.18-6.42,1.49-12.89,1.09-19.94-.56-9.97-3.31-20.04-4.04-29.88-.74-10.09,1.23-22.22,0-31.9-.62-4.86-6.74-12.43-6.73-15.97,0-.13.66-2.37.75-2.46,1.36-1.28,14.4,2.77,17.43,3.02,13.1,1.08,38.04,1.18,51.06,0,4.1-.37,7.45-2.6,11.95-2.03,2.12.27,4.28,1.9,6.5,1.99-1.29,5.23-6.22,7.66-8.86,11.6-2.11,3.15-6.9,15.28-7.18,18.85-.13,1.68,1.01,3.05,1.09,4.91.52,12.71-.78,25.42-1.09,37.9-.29,11.55.09,22.52-.95,33.96-.34,3.8.9,5.96,1.04,8.93.52,6.31-3.53,29.61,8.45,20.49,3.86-4.13,7.45-12.07,11.03-16.92,10.49-14.26,21.52-21.96,28.91-38.97,8.29-19.1,33.47-48.94,35.52-67.28.56-4.99-1.81-12.47,5.5-13.46,2.09-.29,11.23-.37,12.89.12,1.29.38,6.4,5.37,8.61,6.37,1.34.6,6.23,1.82,7.46,1.46,3.05-.88,0-7.98,3.11-8.87,3.06-.87,10.96.12,14.91-.08,8.8-.71,18.33.11,26.99-2.06.86,0,6.16,1.8,6.5,2.08.38.31.15,2.64-1,3.47-7.3,5.26-16.35,8.05-23.95,13-27.61,19.95-54.52,42.38-74.87,69.9-1.95,9.33,10.57,21.66,14.71,29.94,3.15,5.56,2.89,7.79,7.67,12.29,22.41,21.13,25.27,44.21,39.6,69.19,4.57,7.97,6.64,10.79,13.83,16.12,5.26,3.9,4.38,7.75,7.16,12.8,9.13,16.55,34.28,43.76,48.86,55.96,2.82,2.36,7.21,3.69,8.96,7.51h-121.44c-.38,0-1.62-1.41-1.45-2.43.1-.57,1.36-2.04,1.76-3.24,3.36-10.04,8.02-21.43,3.38-31.92-1.65-3.73-6.29-8.51-7.04-11.92-1.54-7.04,4.49-13.96.79-21.23l-7.31-1.18c-2.4-.73-12.67-22.18-15.14-25.78-11.06-10.8-17.91-24.69-27-36.88-4.09-5.48-8.74-12.92-15.98-7.03-3.94,3.2-6.91,10.53-7.47,15.49-.26,2.36.65,6.83-.47,8.5-3.69,3.43-9.58-3.98-11.57,10.39-1.07,12.1.44,25.04,1.04,36.95.41,8.17-1.36,16.09.01,23.92,1.78,10.11,10.2,28.23,16.52,36.37,1.84,2.37,6.46,5.4,6.51,8.5.01.82-.95,2.5-1.54,2.5h-103.45ZM1743.32,156.84c-5.94-1.9-9.64,9.7-5.42,10.9,8.15,2.3,7.86-5.68,5.42-10.9ZM1738.23,295.55c-.65-.6-3.45-1.33-3.91.41-.5,1.89.76,4.93,2.54,5.44.64.18,2.34.42,2.46-.46.15-1.14-.49-4.84-1.09-5.39ZM1912.74,297.45c-2.93.72.11,5.73,1.01,6.96,1.8,2.47,12.05,10.61,13.47,5.5.82-2.95-5.34-7.92-7.63-9.34-1.02-.63-6.25-3.28-6.86-3.13ZM53.66,30.19c3.54.79,6.15,5.08,8.49,6.49,5.16,3.09,8.48.97,12.02-2.97.81-.9,1.16-2.54,1.92-3.07,52.37-1.39,108.39-7.99,158,13.99,12.95,5.7,35.36,18.13,42.82,30.07,2.31,3.69,4.54,12.57,7.8,14.16,2.45,1.19,6.78,1.42,8.87,3.12,1.66,1.35,5.73,10.36,6.97,12.99,14.21,31.63,23.08,71.4,12.48,105.24-.29,2.55.5,14.86-.06,15.4-.36.34-4.79,1.55-5.81,2.18-7.1,19.23-20.52,37.17-36.14,50.2-6.77,4.18-10.96,3.09-12.45,12.51-1.37,2.69-7.06,2.02-9.85,3.13-1.64.66-3.63,2.81-5.31,3.67-38.39,20.44-78.19,17.28-119.79,19.1-7.01.65-14.94,2.61-21.95,3.03-19.12,1.15-37.18-1.72-56.2,1.77-3.34.46-10.01.88-8.19-4.19.77-2.51,7.67-9.13,9.74-12.22,10.67-15.89,16.91-35.99,20.11-54.72-.59-43.7,1.64-87.26-2.04-130.67.42-4.54,2.55-7.74,2.09-12.97-2.04-27.45-16.34-49.77-33.5-70.29-1.24-1.72-2.88-3.68-2.53-5.95h22.49ZM229.07,79.06c-1.2-1.19-6.2,1.64-7.67,1.87-3.89.6-7.27-7.01-9.3-9.37-11.69-13.59-30.52-24.72-46.65-32.24-5.5.71-31.56-1.62-34.38.31-.82.56-1.87,5.51-2,6.98-2.39,27.28,1.11,59.36,1.05,86.8,1.03,5.73,3.48,12.27,3.99,17.96,1.13,12.5-5.68,22.82-6.99,34.9-.94,8.69,5.03,19.64,5.98,27.93.89,7.8-1.17,14.4-3.18,21.74-.72,2.64-3.07,7.21-2.87,10.14.18,2.56,4.51,6.73,5.05,10.99,1.72,13.45.34,27.42,2.01,40.88.69,5.59,5.12,8.88,10.5,9.47,8.93.98,18.37-.62,26.99-1.98,9.87-1.55,6.83-2.28,13.52-7.46,3.38-2.62,7.79-3.8,10.94-6.04,4.17-2.96,6.16-8.56,12.51-8.54,3.27.01,8.59,2.59,12.18,2.9,3.3-.25,8.51-1.09,11.29-3.34,5.15-3.96,4.53-17.38,6.21-23.72,2.99-11.32,7-19.57,8.8-32.11,4.86-37.59,8.15-88.53-13.18-121.46-1.62-3.25-8.18-15.51-7.7-17.99.31-1.62,4.54-6.99,2.89-8.63ZM268.02,122.98c-.34-.36-4.87-.13-5.99.43-1.65.83-2.78,4.85-1.97,5.5.39.31,7.57,1.39,7.96.98.12-.13,1.07-3.18,1.07-3.46s-.95-3.32-1.08-3.45ZM1272.56,316.4l3.5-4.98c1.8-.55,4.48,4.46,6.1,4.92,2.83.81,7.64-4.23,8.83-3.9.75.21,4.03,4.81,5.56,2.98.15-.18.93-3.88,1-4.5.07-8.03-1.7-8.83,7.5-8.48,12.31-1.54,29.17-8.1,40.51-13.43,6.72-3.16,24.34-15.31,30.48-14.52,2.65.34,2.85,3.48,4.46,5.54,9.53,12.27,24.2,20.89,35.53,31.37,4.1,3.79,6.31,8.5,9.45,11.51,2.55,2.44,7.03,3.94,9.06,6.92,1.49,2.18,3.25,6.15-.51,6.55h-99.02c-7.68-4.32-14.23.94-20.95-.02-2.47-.35-6.53-2.95-9.2-3.79-2.46-.77-7.06-2.27-9.32-.75-1.83,1.24-.25,4.37-1.47,4.54-4.37.6-7.9-1.68-11.94-2.05-16.32-1.49-35.55,1.67-51.97,2.08l-172.46-.04c.39-5.48,4.56-9.28,6.81-13.65,9.99-19.38,9.39-38.77,10.14-59.69.64-17.8,1.58-35.05,1-52.77-1.61-48.69,9.5-115.34-21.92-155.64-2.09-2.68-8.25-6.73-3.05-9.98,1.73-1.08,7.94,1.36,10.48,1.57,22.53,1.6,45.59,1.03,67.97-.09,8.03-.25,17.24.82,25.02.04,3.59-.36,9.08-3.26,12.53-1.52.34.17,1.9,1.88,1.9,2.01,0,1-10.16,13.54-11.77,16.11-21.09,33.71-13.97,76.18-15.1,114.58-.73,24.69.7,49.78,0,74.79-.48,17.35-3.41,35.36-2.09,52.85.41,3.39.94,8.34,2.54,11.43,1.19,1.93,6.49,2.83,8.96,3.03,3.86.31,9.08.13,13.03-.05,28.28-1.25,59.2-2.21,86.96-5.98,7.46-1.01,17.73-7.41,21.5,3ZM1209.2,322.5c-3.66,1.06-3.66,8.69,0,9.74,10.13,2.93,10.13-12.67,0-9.74ZM1672.35,276.51v-17.45c0-.57,2.41-3.1,2.83-4.16,1.2-2.98.76-10.9,1.17-11.3.3-.3,7.61-.54,7.92,1.57-.07,10.61.34,21.27.12,31.88-.32,15.18-3.31,32.56.13,47.64.74,3.24,4.56,10.42,3.78,13.1-.12.41-1.09,1.33-1.54,1.46-20.56,1.68-43.95-2.64-64.94-.97-18.97,4.5-39.77,2.11-58.93,1.05-12.88-1.44-46.72-1.65-51.95-15.98-1.67-2.11-10.51-.4-13.86-1.13-9.84-2.15-34.38-24.18-41.66-32.23-4.41-4.88-16.07-18.79-16.05-24.96,0-2.51,1.9-4.7.96-7.87-.42-1.44-3.52-3.14-4.39-4.59-1.77-2.98-1.81-8.73-2.7-12.26-2.6-10.25-7.1-21.7-7.83-32.08-1.14-16.08,1.23-37.08,4.03-52.91,3.9-22.09,24.16-57.83,42.02-71.76,31.93-24.55,80.42-37.63,120.4-35.43,4.4.24,26.27,11.26,28.49,8.97,1.43-1.47-3.05-8.47,1.61-9.86,10.21-1.44,22.15,1.42,32.91.93,7.37-.1,29.93-10.49,31.31,1.28-.85,4.89-6.29,12.56-8.39,17.6-9.03,21.62-8.86,45.26-15.7,67.11-.91,2.9-4.23,11.72-7.65,6.1-7.62-20.29-12.69-43.92-27.08-60.74-29.07-34-82.91-19.98-103.84,15.12-11.94,20.9-30.09,54.5-26.13,78.65.68,9.51-3.15,19.02-1.99,27.91.26,1.95,1.74,4.04,1.99,5.99.65,4.93.39,10.5,1,15.95,4.9,43.6,31.81,96.52,79.47,104.2,19.23,3.1,40.6-3.19,53.49-18.42,3.56-4.21,6.35-9.91,9.95-14.01,2.73-3.11,20.51-17.58,23.67-18.27,2.31-.5,4.97.03,7.34-.15ZM1659.36,75.07h-4v.99h4v-.99ZM1659.36,106.98h-9s0,7.98,0,7.98c1.2,1.25,7.53-1.48,8.55-2.94.6-.86.65-4.85.45-5.04ZM1364.33,233.45c-14.5,14.72-48.16,23.35-68.24,25.16-14.1.77-29.42-2.97-42.53-7.52-3.43-2-3.37-7.14-5.96-10.01-1.51-1.67-3.79-2.03-5.55-3.43-3.33-2.66-12.47-15.59-14.07-15.94-1.3-.29-6.28,3.3-8.05,3.82-5.59,1.13-7.1-4.92-9.88-8.81-10.33-14.45-18.42-27.81-22.26-45.6-2.88-13.34,1.04-14.62,2.8-25.74,2.75-17.4-.35-29.78,7.48-47.38,21.48-48.33,80.37-70.51,129.77-54.63,10.86,3.49,19.73,10.97,29.65,15.29,6.57,2.86,14.12,3.53,20.54,6.43,4.09,7.85,5.73,16.78,8.94,24.98,4.48,11.4,12.53,22.84,13.56,35.33,3.18,38.48-8.54,80.49-36.21,108.06ZM1290.23,55.31c-8.74,1.47-18.02,14.17-22.53,21.4-7.46,11.97-9.9,26.88-11.14,40.73-.1,1.06-1.01,2.01-1.03,3.01-.03,1.59,3.4,6.47,3.02,7.93-.41,1.58-3,1.34-4.03,2-5.93,8.54-1.74,20.55-.97,29.96,1.82,21.3.16,38.1,11.15,57.69,9.77,17.42,24.4,28.18,44.54,17.81,11.4-5.87,16.68-24.06,20.05-35.84,10.69-37.32,8.16-78.73-.98-116.24-3.19-16.18-8.85-18.93-21.43-27.48-3.97-1.41-12.47-1.67-16.66-.97ZM1216.14,202.78c-3.22.9-3.22,11.59.86,10.86,7.29-1.29,7.67-13.24-.86-10.86ZM1510.43,176.28c.74,2.85,9.47.62,9.94-1.04.33-1.17-.36-5.81-.95-6.43-1.67-1.78-9.72,4.66-9,7.47ZM413.91,22.64c1.02-3.39-3.75-4.38-3.92-2.92v5.48c.71.81,3.63-1.59,3.92-2.57ZM913.2,97.98c-2.61,5.12,3.81,9.87,4.56,4.55.19-1.36.27-7.57-1.53-7.51-.21,0-2.87,2.64-3.03,2.96ZM146.12,201.72v6.98c10.3.53,13.18-9.13,0-6.98Z"/>
  <rect class="c" width="2031.32" height="360"/>
</svg>