<?xml version="1.0" encoding="UTF-8"?>
<svg id="a" data-name="Layer 1" xmlns="http://www.w3.org/2000/svg" xmlns:xlink="http://www.w3.org/1999/xlink" viewBox="0 0 512 512">
  <defs>
    <style>
      .c {
        fill: none;
      }

      .d {
        fill: url(#b);
      }
    </style>
    <linearGradient id="b" x1="256" y1="493.62" x2="256" y2="18.38" gradientUnits="userSpaceOnUse">
      <stop offset="0" stop-color="#a2dcd5"/>
      <stop offset=".24" stop-color="#c1d7cf"/>
      <stop offset=".66" stop-color="#d5d4d0"/>
      <stop offset=".82" stop-color="#eae9e7" stop-opacity=".85"/>
      <stop offset="1" stop-color="#fff" stop-opacity=".7"/>
    </linearGradient>
  </defs>
  <path class="d" d="M101.99,112.34c-.62,2.08-5.83,5.1-6.97,7.6-11.03,24.25-25.29,47.25-34.87,72.13-1.56,4.16-6.97,17.38-7.7,20.29-.73,3.44.1,7.18-.2,10.72-.83,7.18-6.14,31.43-4.68,36.32.31,1.25,1.98,1.87,2.29,3.85,2.5,17.8,5,34.45,9.99,51.94,6.14,21.55,18.21,41.63,29.56,60.47,3.33,5.62,14.36,9.16,9.78,18.21-.31.62-9.68,9.99-10.3,10.3-1.43.72-2.67.87-3.78.63-4.35-.93-6.66-7.93-10.89-10.42-1.67-1.04-3.12,1.25-4.89.1-11.34-6.87-32.26-46.63-36.22-59.95-8.43-28.93-17.7-77.12-14.99-106.68.31-3.23,2.08-4.78,2.5-7.29.52-3.43-.31-7.28,0-10.93,3.02-30.08,17.07-51.31,31.74-76.39,3.96-6.66,6.66-13.33,11.87-19.67,2.36-2.82,5.97-6.35,9.77-8.75h0c2.23-1.41,4.52-2.43,6.68-2.7,4.06-.52,6.87.73,9.88.94,1.56,0,5.41-1.98,6.35-.83l.2.1s.1,1.56.73,2.18c2.19,2.6,5.31,3.85,4.17,7.81ZM412.64,80.18h0c-.75-1.38-3.22-1.79-3.91-4.14-.62-2.18.31-8.12-.31-8.85h-.31c-.31-.31-1.56-.21-2.19-.73-12.07-9.78-24.25-17.17-38.61-23.42-4.48-1.98-11.45-2.5-16.45-4.16-18.84-6.14-33.83-12.28-53.5-15.82-4.78-.83-10.72-4.48-16.03-4.68-2.81-.1-4.78,1.35-7.29,1.35-10.82.52-22.38-.83-32.99,0-12.8,1.04-30.6,5.83-43.71,8.54-1.67.31-3.65-.1-5.72.31-26.44,5.72-62.24,27.16-83.47,44.13-2.5,1.98-7.71,6.56-7.39,9.68.05.54.3,1.13.7,1.73,2.11,3.22,8.3,7.11,9.7,9.82.62,1.35.52,3.44.62,3.65,1.46,1.98,11.34-5.72,13.43-6.66,13.43-6.14,23.73-11.14,36.84-17.9,25.19-13.01,38.82-16.86,66.82-20.71,8.33-1.14,10.3-5.41,21.03-4.68,24.46,1.77,54.33,5.1,77.54,13.74,10.41,3.85,21.13,9.99,31.23,14.88,6.14,2.91,18.21,11.24,22.69,12.59,1.77.42,3.44-.2,5.31.73,2.91,1.46,4.27,7.18,9.05,6.77,4.78-.42,12.39-7.7,15.3-11.55.02-.03.04-.06.06-.09.65-.86,1.1-1.57,1.38-2.17.5-1.07.48-1.79.18-2.35ZM493.75,269.41c2.81-19.15-4.48-54.33-8.85-73.89-2.6-11.14-10.51-37.57-17.49-45.79-4.58-5.41-4.89-2.5-9.57-3.85-3.96-1.15-2.6-8.54-3.33-11.24-1.14-4.17-9.68-21.34-12.18-26.65-1.87-3.96-5.31-7.6-7.29-11.55v-.2c-1.09-.54-2.36-1.02-3.68-1.3,0,0,0,0,0,0-1.96-.42-4.04-.4-5.78.47-3.23,4.99-11.24,7.39-12.08,13.43-1.25,8.64,3.75,7.7,4.68,11.14.42,1.66-.1,3.75.42,5.62,1.66,6.87,11.34,16.55,15.4,23.52,8.74,14.78,23.83,46.31,25.71,63.07.42,3.96-.31,8.33,0,12.18.94,11.24,3.23,21.44,3.75,32.78.31,5.93.42,13.63,0,19.57-.72,10.82-4.68,19.25-7.08,29.45-2.18,9.26-5.41,19.46-7.39,27.89-.31,1.87.2,3.96-.31,5.72-.31,1.25-12.59,16.65-14.67,20.61-4.27,8.02-6.77,17.91-10.51,26.02-1.46,3.23-7.18,8.95-5.72,11.34,3.96,6.14,8.43,1.46,14.67,2.4,2.6.41,4.38,2.7,7.29,2.5,3.23-.31,6.56-8.43,8.54-11.03,2.18-2.81,5.2-4.89,7.81-7.91,6.14-7.08,14.57-22.38,18.52-31.33,1.04-2.5,4.27-9.26,4.58-11.24.94-6.35-2.91-18.01-.62-22.48,1.77-3.54,10.82-4.37,11.45-6.77.83-3.12-.2-9.57,0-13.32.52-7.29,3.44-27.06,3.75-29.14ZM415.58,429.29c-.73,1.46.1,4.17-1.14,5.52v.41c-2.19,2.19-13.12,11.55-15.61,12.91-1.98,1.04-4.48,1.14-6.35,2.08-26.54,13.12-58.29,33.41-87.84,37.36-3.13.41-6.46-.31-9.68,0-4.17.52-9.26,3.12-13.43,3.54-4.68.52-9.89-.31-14.57,0-3.96.31-9.47,2.08-13.43,2.39-13.22,1.04-24.67-5.62-37.57-6.14-6.03-2.18-13.43-2.08-19.36-3.75-2.5-.73-1.56-4.06-2.6-5.93-.52-.93-1.98-1.66-2.81-3.23-1.15-2.29-1.46-8.12-4.58-8.85-.73-.1-5.72,2.29-6.56,2.92-1.98,1.66-2.19,5.2-2.4,5.51-.93.94-2.81-3.64-3.64-4.27-2.91-2.08-10.61-3.33-14.26-5.2-3.64-1.87-11.14-5.52-14.15-7.5-3.02-1.98-1.87-2.6-8.12-5.51-6.98-3.23-20.3-12.49-26.13-17.7-1.75-1.55-3.04-2.86-4.01-4.23h0c-1.56-2.24-2.27-4.65-2.65-8.57-.93-10.09,1.87-16.13,11.35-19.98,5.83,5.1,12.39,9.57,18.42,14.47,2.19,1.77,3.96,4.37,6.04,6.14,16.24,13.12,39.86,23.1,59.84,30.08,16.97,5.93,39.24,9.89,56.83,11.24,8.01.62,13.32-2.5,20.82-3.64,1.66-.26,3.4-.49,5.2-.7.36-.04.72-.08,1.09-.12.63-.07,1.27-.14,1.91-.21.57-.06,1.15-.12,1.73-.18.58-.06,1.17-.12,1.75-.18.07,0,.14,0,.2-.02,1.11-.11,2.22-.23,3.34-.35.03,0,.07,0,.1,0,1.54-.16,3.08-.33,4.61-.52.25-.03.5-.06.75-.09,1.3-.16,2.59-.33,3.86-.52.42-.06.84-.13,1.26-.19.57-.08,1.14-.18,1.71-.28,2.66-.46,5.2-1.01,7.54-1.7,1.25-.42,2.29-2.4,4.06-3.23,5.1-2.6,13.53-4.58,19.46-7.29,18.42-8.43,38.93-18.21,54.43-30.71,5.31-4.16,9.78-7.49,16.34-3.02,1.35.94,11.87,11.45,12.07,12.28.83,3.02-2.6,4.27-3.85,6.97ZM320.45,457.19c-1.66-.21-5.62-.21-7.18.21-1.46.41-4.27,3.96-3.23,4.68v.1s1.77.31,3.02,1.15c.83.62,1.35,1.98,2.6,2.29,7.6,2.29,10.83-7.6,4.79-8.43ZM340.43,451.26c-2.08-2.08-8.54,2.4-6.03,4.89.72.73,5.3.73,6.03,0,.1-.21.21-4.68,0-4.89ZM319.51,335.81,374.23,388.76c-.41-1.25-3.23-1.77-4.27-3.02-2.19-2.5-2.4-7.39-4.79-9.78-2.6-2.5-7.91-3.02-11.24-4.58-9.88-4.79-21.86-18.42-30.18-25.81-1.04-1.04-3.12-1.46-3.75-2.39-1.33-1.94-.04-6.6-.49-7.36-.74.02-3.05,2.15-4.09,2.15-4.06,0-9.89-8.54-13.22-8.02-1.77.31-5.83,3.23-8.12,4.17-4.79,1.87-11.66,4.06-16.66,5.2-1.87.41-9.26.73-10.09,1.45-.73.62.1,16.86,0,20.09-.31,8.85-.83,12.49,0,21.86.62,6.56-1.98,13.12-2.39,19.36-.73,8.23.52,17.28,0,25.61-.52,7.39-5.2,8.85,6.56,7.81,10.51-.94,26.12-4.58,36.32-7.5,24.14-6.87,44.86-19.98,64.11-35.6,1.25-1.04,3.43,0,2.29-3.64ZM245.06,424.97c-.1,1.46-1.56,3.54-1.98,5.31-.31,1.45,0,4.99-.21,5.2-1.14,1.25-11.34-2.08-13.94-1.25-33.72-7.71-64.43-17.59-89.41-41.95-1.88-1.77-7.71-3.33-3.65-7.28,2.19-2.08,6.66-4.58,9.05-6.66,15.2-13.12,30.6-26.12,46.21-38.93,3.12-2.5,6.66-8.33,10.93-8.53,1.87,0,5.72,2.08,6.56,1.25.52-.52.52-4.38,3.12-3.54,2.6.73,3.54,6.14,4.48,7.08l.1-.1c3.23,3.23,14.99,3.02,19.67,5.31,3.54,1.77,1.66,6.87,1.98,10.2,1.56,15.51,6.14,37.78,4.89,52.25-.62,6.98,2.71,15.82,2.19,21.65ZM175.54,394.16c-1.98.52-2.39,5.51-1.77,6.03h-.1s4.58,1.46,5.41,1.25c4.16-1.14.83-8.43-3.54-7.28ZM244.22,88.39c.21-2.5.83-9.78-1.87-10.3-.94-.21-2.39,1.04-3.64,1.14-39.14,3.85-67.45,14.99-97.94,39.55-1.56,1.35-3.33-.21-2.08,4.68,1.56,6.45,7.7,5.93,11.34,9.26,1.35,1.25,1.77,3.02,2.92,4.27,12.18,12.7,28.73,24.15,42.05,35.81,1.66,1.35,4.79,5.51,6.24,5.93,3.44,1.04,6.04-1.87,8.96-2.92,5.72-2.08,13.32-5.1,19.04-6.45,2.29-.52,8.43.1,9.99-1.45l.2.1c.31-.52-.2-7.08,0-9.06,2.19-23.31,3.13-47.56,4.79-70.56ZM366.52,118.01c-11.97-6.76-20.82-14.57-34.45-21.44-2.29-1.15-12.18-7.91-13.74-6.35v-.1c-.42.41,3.33,10.2-1.87,8.53-5.1-1.66.62-7.49.62-7.91,0-2.29-22.9-8.12-26.44-8.85-7.49-1.56-14.05-2.08-21.54-2.81-1.35-.1-4.68-1.98-5.52-1.15-.41.42,0,10.83,0,12.81,1.35,21.86,4.06,43.92,6.14,65.67.31,3.33-.94,8.85,1.25,10.93,1.87,1.77,9.99,2.5,13.43,3.54,3.02.94,17.07,6.77,18.21,5.52.62-.62.31-5.93,3.02-4.79,3.33,1.46.42,4.79.62,4.89,2.29,1.87,5.72-3.02,7.39-4.17,1.46-1.04,6.04-3.43,6.66-4.27.93-1.56.2-3.75.62-5.41.73-2.5,4.06-1.77,6.03-2.5,6.98-2.81,10.1-9.57,15.82-12.18,1.87-.83,4.48-.31,5.52-1.77,1.25-1.98.52-3.85,3.54-6.25,1.25-1.04,2.81-1.04,3.02-1.14,2.92-2.18-3.02-2.6-3.64-3.02-5.31-3.33,7.29-12.6,10.41-12.49.1,0,3.02.83,3.02.83,1.15,1.35-2.39,4.89-.62,6.14,1.25-2.5,6.35-4.06,7.29-6.03,2.91-5.93-1.35-4.38-4.79-6.25ZM434.81,283.55c-.41-.41-2.08.31-2.18-.83-.31-2.18-.21-7.18,0-9.68.1-1.98,2.29-8.12,1.25-9.05l.2-.2c-.41-.42-9.68,0-11.55,0-1.25.1-6.04.52-7.29.52-8.64.73-18.94.83-26.65,3.33-3.85,1.25-21.44,15.19-26.33,18.73-9.68,6.97-18.84,14.36-28.62,21.23-2.29,1.56-4.58.93-2.5,4.89.62,1.04,3.23,2.92,4.37,4.17.73.83.83,2.29,1.35,2.81,3.85,3.75,8.23.31,12.6,9.89,3.23,7.18,2.71,5.62,7.81,11.55,7.18,8.43,20.4,26.44,30.29,30.5.83.31,5.2,1.46,5.62,1.46,2.71-.1,11.03-17.07,13.74-19.88,1.56-4.27,4.06-9.78,8.43-11.55,6.77-15.09,10.1-33.51,16.65-48.4,1.35-2.91,5.93-6.56,2.81-9.47ZM171.59,307.29c-.31-1.46.1-3.23-.31-4.58-.52-1.87-3.12-1.77-4.68-2.6-5.83-3.23-2.91-1.46-7.91-1.66-1.77-.1-13.22-10.2-15.82-12.28-2.19-1.67-6.66-3.75-8.02-5.41-1.56-1.87-.83-3.23-1.35-4.78-1.04-3.02-2.7-.83-4.16-.83-3.12,0-7.91-5.41-11.14-7.08-5.41-2.81-27.37-2.08-35.08-2.6-3.64-.21-8.64-3.96-6.45,2.81.41,1.25,2.29,1.88,2.29,3.75-.1,3.75-1.77,7.91-1.25,13.32,3.33,32.68,21.23,59.01,39.45,84.62.52.73.41,1.87.72,2.18.31.31,4.58,0,4.58,0l.1.21c.42-.31.42-1.87,1.35-2.91,8.54-9.68,16.97-19.46,25.61-29.14,6.76-7.7,15.3-14.88,21.96-23.1,6.66-8.12,1.25-5.73.1-9.89ZM432,243.27c-1.98.62-9.47.31-12.07.1-2.08-.1-3.85-1.25-5.93-1.35-4.68-.31-20.51.73-23.21-2.29-2.08-2.4-.83-5.93-6.14-6.14-2.19,0-3.75,1.77-5.41.73l-47.46-36.53c4.68-5.41,9.88-10.51,14.57-15.82,10.41-11.87,21.13-23.42,31.64-35.28,1.15-1.35,7.7-12.49,9.68-10.41v.1c.62.62-.52,10.41,0,10.93,1.67,1.66,5.31-2.81,6.66-2.4,9.89,13.95,19.05,27.89,25.61,43.72,3.43,8.22,6.76,17.8,8.85,26.44,1.98,8.64,2.6,17.38,4.58,25.92.83.83-.73,2.08-1.35,2.29ZM366.53,170.52v.1c-1.35.31-5.62,3.23-5.62,4.06,0,1.77,6.45,4.89,9.06,4.17,2.91-.73,3.75-9.89-3.44-8.33ZM176.06,198.94c-.41,1.56-4.48,2.6-6.03,3.75-16.76,11.87-32.58,25.19-49.54,36.74-9.47,2.08-19.25,1.87-28.83,2.71-1.25,0-2.5,1.04-3.75,1.14-1.87.1-11.13.41-11.55,0v.1c-.93-.94,3.12-18.94,2.71-22.28,7.7-27.99,19.05-57.24,38.61-79.31,1.04-1.14,4.06-4.68,5.52-4.16.93.31,5.31,7.6,6.66,9.15,10.51,12.08,22.17,23.11,32.89,35.18,2.39,2.71,4.89,7.08,7.29,9.78,2.18,2.39,7.08,3.85,6.03,7.18ZM90.41,221.42c-.52,0-4.06,1.14-4.17,1.35h-.1c-1.87,1.77,1.35,8.74,4.37,9.57,2.92.83,7.18-2.81,7.7-5.62.52-2.81-5.3-5.62-7.8-5.31ZM184.49,288.33c-.2-.21-4.68-1.46-5.41-1.25-1.87.52-2.5,4.48-1.87,4.89.2.1,2.91.21,4.06.21,1.04.1,1.46,1.77,2.71-.21.62-1.04.62-3.64.62-3.64h-.1ZM307.81,274.42c-.31,1.35.21,3.12-.21,4.68-.41,1.56-3.54,3.44-4.68,4.99-4.06,5.52-7.18,10.72-12.7,15.2-10.72,8.53-19.57,10.3-32.78,10.93-1.46,0-2.81,1.35-4.89,1.25-14.57-1.14-36.42-13.12-42.98-26.44-1.35-2.71-1.04-7.7-1.98-8.95-.62-.94-2.5-.83-2.92-1.35l-.1.1c-2.5-3.12-3.12-20.29-2.7-24.77,3.96-43.4,62.14-64.84,91.9-32.26,16.13,17.69,19.57,33.3,14.05,56.62ZM245.78,209.89l2.39,2.39,3.02-3.02-2.39-2.39-3.02,3.02ZM285.75,252.56c-.31-3.12-3.23-11.97-6.04-13.43-3.12-1.56-7.7-2.5-10.72-5.62-.94-.94-.83-3.65-1.66-4.48h.1c-.72-.72-10.61-2.6-12.59-2.7-9.47-.73-21.76,8.64-25.61,17.07-3.12,6.66-4.06,17.49-1.25,24.35,2.29,5.62,5.72,4.06,6.66,4.89.31.31-.41,3.23,1.25,5.41,6.35,8.74,22.28,9.67,31.64,6.03,11.97-4.68,19.67-18.84,18.21-31.54ZM294.39,251.83v.1c-2.39-2.5-6.87,4.06-4.89,6.04.21.2,4.68.2,4.89,0,.21-.21.21-5.83,0-6.14ZM295.64,248.92c0-.73-2.92-2.5-3.64-1.87-1.88,1.87,3.64,5.2,3.64,1.87Z"/>
  <rect class="c" x=".27" y=".27" width="511.45" height="511.45"/>
</svg>